<svg width="3408" height="2111" viewBox="0 0 3408 2111" fill="none" xmlns="http://www.w3.org/2000/svg">
<g style="mix-blend-mode:color-dodge">
<path d="M1602.19 32.9215C1728.19 51.1034 1815.59 167.983 1797.41 293.98L1568.14 1882.76C1549.96 2008.76 1433.08 2096.16 1307.08 2077.98V2077.98C1181.08 2059.8 1093.68 1942.92 1111.87 1816.92L1341.13 228.137C1359.32 102.141 1476.2 14.7395 1602.19 32.9215V32.9215Z" fill="url(#paint0_radial_10660_711)"/>
<path fill-rule="evenodd" clip-rule="evenodd" d="M1273.79 364.621C1125.62 290.626 953.05 262.388 777.628 294.738C348.156 373.938 64.2039 786.297 143.403 1215.77C222.288 1643.53 631.687 1926.93 1059.31 1850.92L1114.84 1466.1C1079.51 1483.47 1041.23 1496.34 1000.6 1503.83C762.307 1547.77 533.51 1390.22 489.567 1151.93C445.623 913.642 603.173 684.845 841.464 640.901C982.5 614.893 1120.21 659.468 1218.24 749.591L1273.79 364.621Z" fill="url(#paint1_radial_10660_711)"/>
<rect x="2355.25" y="85.6494" width="2037" height="461" rx="230.5" transform="rotate(98.2073 2355.25 85.6494)" fill="url(#paint2_radial_10660_711)"/>
<path fill-rule="evenodd" clip-rule="evenodd" d="M2156.65 1829.26C2301.07 1892.9 2465.9 1914.04 2632.32 1880.22C3060.29 1793.28 3336.74 1375.85 3249.79 947.88C3166.7 538.893 2781.8 268.28 2374.3 320.963L2320.39 694.607C2341.89 686.548 2364.31 680.077 2387.53 675.359C2624.99 627.116 2856.59 780.505 2904.84 1017.96C2953.08 1255.42 2799.69 1487.03 2562.23 1535.27C2433.99 1561.33 2307.45 1528.57 2210.58 1455.52L2156.65 1829.26Z" fill="url(#paint3_radial_10660_711)"/>
</g>
<defs>
<radialGradient id="paint0_radial_10660_711" cx="0" cy="0" r="1" gradientUnits="userSpaceOnUse" gradientTransform="translate(1454.64 1055.45) rotate(-171.789) scale(230.5 1033.12)">
<stop offset="0.02" stop-color="#62D2FF"/>
<stop offset="0.0201" stop-color="#62D2FF"/>
<stop offset="0.58" stop-color="#62D2FF"/>
<stop offset="0.72" stop-color="#4FAACE"/>
<stop offset="0.77" stop-color="#50ABCF"/>
<stop offset="1" stop-color="#3B7E99"/>
</radialGradient>
<radialGradient id="paint1_radial_10660_711" cx="0" cy="0" r="1" gradientUnits="userSpaceOnUse" gradientTransform="translate(765.906 1100.96) rotate(79.5514) scale(790.732 633.001)">
<stop offset="0.02" stop-color="#62D2FF"/>
<stop offset="0.0201" stop-color="#62D2FF"/>
<stop offset="0.58" stop-color="#62D2FF"/>
<stop offset="0.72" stop-color="#4FAACE"/>
<stop offset="0.77" stop-color="#50ABCF"/>
<stop offset="1" stop-color="#3B7E99"/>
</radialGradient>
<radialGradient id="paint2_radial_10660_711" cx="0" cy="0" r="1" gradientUnits="userSpaceOnUse" gradientTransform="translate(3373.75 316.149) rotate(90) scale(230.5 1018.5)">
<stop offset="0.02" stop-color="#62D2FF"/>
<stop offset="0.0201" stop-color="#62D2FF"/>
<stop offset="0.58" stop-color="#62D2FF"/>
<stop offset="0.72" stop-color="#4FAACE"/>
<stop offset="0.77" stop-color="#50ABCF"/>
<stop offset="1" stop-color="#3B7E99"/>
</radialGradient>
<radialGradient id="paint3_radial_10660_711" cx="0" cy="0" r="1" gradientUnits="userSpaceOnUse" gradientTransform="translate(2639.11 1073) rotate(-101.484) scale(789.707 623.368)">
<stop offset="0.02" stop-color="#62D2FF"/>
<stop offset="0.0201" stop-color="#62D2FF"/>
<stop offset="0.58" stop-color="#62D2FF"/>
<stop offset="0.72" stop-color="#4FAACE"/>
<stop offset="0.77" stop-color="#50ABCF"/>
<stop offset="1" stop-color="#3B7E99"/>
</radialGradient>
</defs>
</svg>
